<mxfile host="65bd71144e">
    <diagram id="JAEv4uqlWOv0D0mYVtIB" name="Page-1">
        <mxGraphModel dx="2171" dy="1731" grid="1" gridSize="10" guides="1" tooltips="1" connect="1" arrows="1" fold="1" page="1" pageScale="1" pageWidth="850" pageHeight="1100" math="0" shadow="0">
            <root>
                <mxCell id="0"/>
                <mxCell id="1" parent="0"/>
                <mxCell id="2" value="Indexer Pipline" style="rounded=1;whiteSpace=wrap;html=1;labelPosition=center;verticalLabelPosition=top;align=center;verticalAlign=bottom;fontStyle=1;fontSize=20;fillColor=#f5f5f5;fontColor=#333333;strokeColor=#666666;" vertex="1" parent="1">
                    <mxGeometry x="320" y="100" width="1310" height="460" as="geometry"/>
                </mxCell>
                <mxCell id="3" value="enhanced-doc-analyzer component" style="rounded=1;whiteSpace=wrap;html=1;fillColor=#d5e8d4;strokeColor=#82b366;strokeWidth=2;fontColor=#000000;labelPosition=center;verticalLabelPosition=top;align=center;verticalAlign=bottom;fontSize=15;fontStyle=1;arcSize=10;" vertex="1" parent="1">
                    <mxGeometry x="344" y="170" width="500" height="360" as="geometry"/>
                </mxCell>
                <mxCell id="4" style="edgeStyle=none;html=1;entryX=0;entryY=0.5;entryDx=0;entryDy=0;" edge="1" parent="1" source="6" target="18">
                    <mxGeometry relative="1" as="geometry"/>
                </mxCell>
                <mxCell id="5" style="edgeStyle=none;html=1;entryX=0;entryY=0.5;entryDx=0;entryDy=0;" edge="1" parent="1" source="6" target="23">
                    <mxGeometry relative="1" as="geometry"/>
                </mxCell>
                <mxCell id="6" value="Azure Document inteligent" style="rounded=1;whiteSpace=wrap;html=1;fillColor=#1ba1e2;fontColor=#ffffff;strokeColor=#006EAF;" vertex="1" parent="1">
                    <mxGeometry x="370" y="218" width="120" height="60" as="geometry"/>
                </mxCell>
                <mxCell id="7" style="edgeStyle=none;html=1;entryX=0;entryY=0.5;entryDx=0;entryDy=0;" edge="1" parent="1" source="11" target="19">
                    <mxGeometry relative="1" as="geometry"/>
                </mxCell>
                <mxCell id="8" style="edgeStyle=none;html=1;entryX=0;entryY=0.5;entryDx=0;entryDy=0;exitX=1;exitY=0.5;exitDx=0;exitDy=0;" edge="1" parent="1" source="11" target="20">
                    <mxGeometry relative="1" as="geometry"/>
                </mxCell>
                <mxCell id="9" style="edgeStyle=none;html=1;entryX=0;entryY=0.5;entryDx=0;entryDy=0;" edge="1" parent="1" source="11" target="22">
                    <mxGeometry relative="1" as="geometry"/>
                </mxCell>
                <mxCell id="10" style="edgeStyle=none;html=1;entryX=0;entryY=0.5;entryDx=0;entryDy=0;" edge="1" parent="1" source="11" target="26">
                    <mxGeometry relative="1" as="geometry"/>
                </mxCell>
                <mxCell id="11" value="DETR (layout detection)" style="rounded=1;whiteSpace=wrap;html=1;fillColor=#ffe6cc;strokeColor=#d79b00;" vertex="1" parent="1">
                    <mxGeometry x="370" y="392" width="110" height="60" as="geometry"/>
                </mxCell>
                <mxCell id="12" value="" style="group" vertex="1" connectable="0" parent="1">
                    <mxGeometry x="130" y="200" width="170" height="270" as="geometry"/>
                </mxCell>
                <mxCell id="13" value="" style="rounded=1;whiteSpace=wrap;html=1;fillColor=#e1d5e7;strokeColor=#9673a6;strokeWidth=2;" vertex="1" parent="12">
                    <mxGeometry y="22" width="170" height="230" as="geometry"/>
                </mxCell>
                <mxCell id="14" value="Storage" style="aspect=fixed;html=1;points=[];align=center;image;fontSize=12;image=img/lib/azure2/storage/Storage_Accounts.svg;labelBackgroundColor=none;labelBorderColor=none;strokeColor=#99FFCC;strokeWidth=2;fontColor=#000000;" vertex="1" parent="12">
                    <mxGeometry x="20" width="65" height="52" as="geometry"/>
                </mxCell>
                <mxCell id="15" value="PDFs&lt;br&gt;" style="aspect=fixed;html=1;points=[];align=center;image;fontSize=12;image=img/lib/azure2/general/Files.svg;" vertex="1" parent="1">
                    <mxGeometry x="180" y="299.06" width="84" height="91.88" as="geometry"/>
                </mxCell>
                <mxCell id="16" style="edgeStyle=none;html=1;entryX=0;entryY=0.5;entryDx=0;entryDy=0;" edge="1" parent="1" source="13" target="6">
                    <mxGeometry relative="1" as="geometry"/>
                </mxCell>
                <mxCell id="17" style="edgeStyle=none;html=1;entryX=0;entryY=0.5;entryDx=0;entryDy=0;" edge="1" parent="1" source="13" target="11">
                    <mxGeometry relative="1" as="geometry"/>
                </mxCell>
                <mxCell id="18" value="Text (paragraphs)" style="rounded=0;whiteSpace=wrap;html=1;fillColor=#dae8fc;strokeColor=#6c8ebf;" vertex="1" parent="1">
                    <mxGeometry x="540" y="200" width="120" height="40" as="geometry"/>
                </mxCell>
                <mxCell id="19" value="Images" style="rounded=0;whiteSpace=wrap;html=1;fillColor=#fff2cc;strokeColor=#d6b656;" vertex="1" parent="1">
                    <mxGeometry x="540" y="344" width="120" height="28" as="geometry"/>
                </mxCell>
                <mxCell id="20" value="tables" style="rounded=0;whiteSpace=wrap;html=1;fillColor=#fff2cc;strokeColor=#d6b656;" vertex="1" parent="1">
                    <mxGeometry x="540" y="386" width="120" height="28" as="geometry"/>
                </mxCell>
                <mxCell id="21" style="edgeStyle=none;html=1;entryX=0;entryY=0.75;entryDx=0;entryDy=0;" edge="1" parent="1" source="22" target="24">
                    <mxGeometry relative="1" as="geometry"/>
                </mxCell>
                <mxCell id="22" value="formula" style="rounded=0;whiteSpace=wrap;html=1;fillColor=#fff2cc;strokeColor=#d6b656;" vertex="1" parent="1">
                    <mxGeometry x="540" y="472" width="120" height="32" as="geometry"/>
                </mxCell>
                <mxCell id="23" value="Page info (number columns and order of the elements)" style="rounded=0;whiteSpace=wrap;html=1;fillColor=#dae8fc;strokeColor=#6c8ebf;" vertex="1" parent="1">
                    <mxGeometry x="540" y="250" width="120" height="50" as="geometry"/>
                </mxCell>
                <mxCell id="24" value="Nougat (OCR-latex)" style="rounded=1;whiteSpace=wrap;html=1;fillColor=#fad9d5;strokeColor=#ae4132;" vertex="1" parent="1">
                    <mxGeometry x="688" y="434" width="130" height="60" as="geometry"/>
                </mxCell>
                <mxCell id="25" style="edgeStyle=none;html=1;entryX=0;entryY=0.25;entryDx=0;entryDy=0;exitX=1;exitY=0.5;exitDx=0;exitDy=0;" edge="1" parent="1" source="26" target="24">
                    <mxGeometry relative="1" as="geometry">
                        <mxPoint x="660" y="443.46153846153857" as="sourcePoint"/>
                        <mxPoint x="730" y="444" as="targetPoint"/>
                    </mxGeometry>
                </mxCell>
                <mxCell id="26" value="Caption" style="rounded=0;whiteSpace=wrap;html=1;fillColor=#fff2cc;strokeColor=#d6b656;" vertex="1" parent="1">
                    <mxGeometry x="540" y="428" width="120" height="32" as="geometry"/>
                </mxCell>
                <mxCell id="27" value="Chunk-Caption Component" style="rounded=1;whiteSpace=wrap;html=1;fillColor=#d5e8d4;strokeColor=#82b366;strokeWidth=2;fontColor=#000000;labelPosition=center;verticalLabelPosition=top;align=center;verticalAlign=bottom;fontSize=15;fontStyle=1;arcSize=10;" vertex="1" parent="1">
                    <mxGeometry x="858" y="170" width="172" height="360" as="geometry"/>
                </mxCell>
                <mxCell id="28" value="Image captioning (LLM)" style="rounded=1;whiteSpace=wrap;html=1;fillColor=#fad9d5;strokeColor=#ae4132;" vertex="1" parent="1">
                    <mxGeometry x="876" y="351" width="130" height="60" as="geometry"/>
                </mxCell>
                <mxCell id="29" style="edgeStyle=none;html=1;entryX=0;entryY=0.5;entryDx=0;entryDy=0;" edge="1" parent="1" source="19" target="28">
                    <mxGeometry relative="1" as="geometry">
                        <Array as="points">
                            <mxPoint x="830" y="358"/>
                        </Array>
                    </mxGeometry>
                </mxCell>
                <mxCell id="30" style="edgeStyle=none;html=1;entryX=0;entryY=0.5;entryDx=0;entryDy=0;" edge="1" parent="1" source="20" target="28">
                    <mxGeometry relative="1" as="geometry">
                        <Array as="points">
                            <mxPoint x="830" y="400"/>
                        </Array>
                    </mxGeometry>
                </mxCell>
                <mxCell id="31" value="Chunking" style="rounded=1;whiteSpace=wrap;html=1;fillColor=#fad9d5;strokeColor=#ae4132;" vertex="1" parent="1">
                    <mxGeometry x="879" y="226" width="130" height="60" as="geometry"/>
                </mxCell>
                <mxCell id="32" style="edgeStyle=none;html=1;entryX=0;entryY=0.5;entryDx=0;entryDy=0;" edge="1" parent="1" source="18" target="31">
                    <mxGeometry relative="1" as="geometry">
                        <Array as="points">
                            <mxPoint x="840" y="220"/>
                        </Array>
                    </mxGeometry>
                </mxCell>
                <mxCell id="33" value="&lt;div style=&quot;font-size: 14px; line-height: 19px; white-space: pre;&quot;&gt;&lt;font style=&quot;color: rgb(29, 29, 29);&quot;&gt;generate embeddings &lt;/font&gt;&lt;/div&gt;&lt;div style=&quot;font-size: 14px; line-height: 19px; white-space: pre;&quot;&gt;&lt;font style=&quot;color: rgb(29, 29, 29);&quot;&gt;component&lt;/font&gt;&lt;/div&gt;" style="rounded=1;whiteSpace=wrap;html=1;fillColor=#d5e8d4;strokeColor=#82b366;strokeWidth=2;fontColor=#000000;labelPosition=center;verticalLabelPosition=top;align=center;verticalAlign=bottom;fontSize=15;fontStyle=1;arcSize=10;" vertex="1" parent="1">
                    <mxGeometry x="1045" y="170" width="172" height="360" as="geometry"/>
                </mxCell>
                <mxCell id="34" value="embeding model&lt;br&gt;(embeding-3-large)" style="rounded=1;whiteSpace=wrap;html=1;fillColor=#fad9d5;strokeColor=#ae4132;" vertex="1" parent="1">
                    <mxGeometry x="1070" y="288" width="130" height="60" as="geometry"/>
                </mxCell>
                <mxCell id="35" value="&lt;div style=&quot;font-size: 14px; line-height: 19px; white-space: pre;&quot;&gt;&lt;font color=&quot;#1d1d1d&quot;&gt;Update ACS index&lt;/font&gt;&lt;/div&gt;&lt;div style=&quot;font-size: 14px; line-height: 19px; white-space: pre;&quot;&gt;Component&lt;/div&gt;" style="rounded=1;whiteSpace=wrap;html=1;fillColor=#d5e8d4;strokeColor=#82b366;strokeWidth=2;fontColor=#000000;labelPosition=center;verticalLabelPosition=top;align=center;verticalAlign=bottom;fontSize=15;fontStyle=1;arcSize=10;" vertex="1" parent="1">
                    <mxGeometry x="1240" y="170" width="172" height="360" as="geometry"/>
                </mxCell>
                <mxCell id="36" style="edgeStyle=none;html=1;entryX=0.5;entryY=0;entryDx=0;entryDy=0;" edge="1" parent="1" source="31" target="34">
                    <mxGeometry relative="1" as="geometry">
                        <Array as="points">
                            <mxPoint x="1135" y="255"/>
                        </Array>
                    </mxGeometry>
                </mxCell>
                <mxCell id="37" style="edgeStyle=none;html=1;entryX=0.5;entryY=1;entryDx=0;entryDy=0;" edge="1" parent="1" source="28" target="34">
                    <mxGeometry relative="1" as="geometry">
                        <Array as="points">
                            <mxPoint x="1135" y="380"/>
                        </Array>
                    </mxGeometry>
                </mxCell>
                <mxCell id="38" value="" style="aspect=fixed;html=1;points=[];align=center;image;fontSize=12;image=img/lib/azure2/app_services/Search_Services.svg;labelBackgroundColor=none;labelBorderColor=none;strokeColor=#99FFCC;strokeWidth=2;fontColor=#000000;" vertex="1" parent="1">
                    <mxGeometry x="1280" y="288" width="72" height="52" as="geometry"/>
                </mxCell>
                <mxCell id="39" style="edgeStyle=none;html=1;entryX=-0.042;entryY=0.583;entryDx=0;entryDy=0;entryPerimeter=0;" edge="1" parent="1" source="34" target="38">
                    <mxGeometry relative="1" as="geometry"/>
                </mxCell>
                <mxCell id="40" value="&lt;div style=&quot;font-size: 14px; line-height: 19px; white-space: pre;&quot;&gt;&lt;font color=&quot;#1d1d1d&quot;&gt;Register MLindex index&lt;/font&gt;&lt;/div&gt;&lt;div style=&quot;font-size: 14px; line-height: 19px; white-space: pre;&quot;&gt;Component&lt;/div&gt;" style="rounded=1;whiteSpace=wrap;html=1;fillColor=#d5e8d4;strokeColor=#82b366;strokeWidth=2;fontColor=#000000;labelPosition=center;verticalLabelPosition=top;align=center;verticalAlign=bottom;fontSize=15;fontStyle=1;arcSize=10;" vertex="1" parent="1">
                    <mxGeometry x="1427" y="170" width="172" height="360" as="geometry"/>
                </mxCell>
                <mxCell id="41" value="" style="image;aspect=fixed;html=1;points=[];align=center;fontSize=12;image=img/lib/azure2/ai_machine_learning/Machine_Learning.svg;" vertex="1" parent="1">
                    <mxGeometry x="1470" y="282" width="64" height="68" as="geometry"/>
                </mxCell>
                <mxCell id="42" style="edgeStyle=none;html=1;" edge="1" parent="1" source="38" target="41">
                    <mxGeometry relative="1" as="geometry"/>
                </mxCell>
                <mxCell id="43" style="edgeStyle=none;html=1;entryX=0.5;entryY=1;entryDx=0;entryDy=0;" edge="1" parent="1" source="24" target="34">
                    <mxGeometry relative="1" as="geometry">
                        <Array as="points">
                            <mxPoint x="1135" y="464"/>
                        </Array>
                    </mxGeometry>
                </mxCell>
                <mxCell id="44" value="" style="image;aspect=fixed;html=1;points=[];align=center;fontSize=12;image=img/lib/azure2/ai_machine_learning/Machine_Learning.svg;" vertex="1" parent="1">
                    <mxGeometry x="360" y="80" width="64" height="68" as="geometry"/>
                </mxCell>
            </root>
        </mxGraphModel>
    </diagram>
</mxfile>